<?xml version="1.0" encoding="UTF-8"?>
<svg id="Layer_2" data-name="Layer 2" xmlns="http://www.w3.org/2000/svg" viewBox="0 0 478.05 519.64">
  <defs>
    <style>
      .cls-1, .cls-2, .cls-3, .cls-4, .cls-5, .cls-6 {
        fill: #FFFFFF;
        opacity: 0.9;
      }
      .cls-1 { opacity: 1; }
      .cls-6 { opacity: 0.8; }
    </style>
  </defs>
  <g id="_Layer_1" data-name="Layer 1">
    <g>
      <polygon class="cls-5" points="0 235.29 6.98 230.46 173.63 226.77 178.8 234.99 167.85 240.67 7.65 243.12 0 235.29"/>
      <polygon class="cls-3" points="208.12 276.04 199.36 276.47 112.2 380.41 113.05 393.54 123.25 401.28 290.2 399.24 291.77 393.32 295.11 377.55 216.14 276.47 208.12 276.04"/>
      <path class="cls-4" d="M477.26,164.05l-185.49,229.27-83.66-117.27,92.95-114.98c1.29-1.59,3.23-2.52,5.28-2.52l168.19-.21c2.96,0,4.6,3.43,2.74,5.73Z"/>
      <polygon class="cls-1" points="291.77 393.32 113.05 393.54 208.12 276.04 291.77 393.32"/>
      <path class="cls-6" d="M375.03,519.43l-168.48.21c-2.2,0-4.26-1.06-5.54-2.85l-87.96-123.25,178.72-.23,86.11,120.55c1.66,2.33,0,5.56-2.86,5.56ZM178.8,234.99l-178.8.3,113.05,158.25,95.07-117.5-29.31-41.05Z"/>
      <path class="cls-2" d="M364.22,5.73l-185.41,229.26-178.8.3L188.1,2.81c1.29-1.59,3.22-2.52,5.27-2.52L361.48,0c2.96,0,4.6,3.43,2.74,5.73Z"/>
    </g>
  </g>
</svg>